M48
; DRILL file {KiCad 5.1.8-db9833491~88~ubuntu20.04.1} date Fri Nov 27 15:10:21 2020
; FORMAT={-:-/ absolute / inch / decimal}
; #@! TF.CreationDate,2020-11-27T15:10:21-07:00
; #@! TF.GenerationSoftware,Kicad,Pcbnew,5.1.8-db9833491~88~ubuntu20.04.1
; #@! TF.FileFunction,Plated,1,2,PTH
FMAT,2
INCH
T1C0.0295
T2C0.0315
T3C0.0394
%
G90
G05
T1
X5.715Y-4.1231
X5.765Y-4.0731
X5.815Y-4.1231
T2
X5.665Y-4.3731
X5.965Y-4.3731
T3
X5.865Y-4.6231
X5.9635Y-4.6231
X4.965Y-3.9231
X4.965Y-4.0231
X4.965Y-4.1231
X4.965Y-4.2231
X4.965Y-4.3231
X4.965Y-4.4231
X4.9568Y-3.6731
X4.9568Y-3.7731
X5.0568Y-3.6731
X5.0568Y-3.7731
X5.1568Y-3.6731
X5.1568Y-3.7731
X5.2568Y-3.6731
X5.2568Y-3.7731
X5.3568Y-3.6731
X5.3568Y-3.7731
X5.4568Y-3.6731
X5.4568Y-3.7731
X5.5568Y-3.6731
X5.5568Y-3.7731
X5.6568Y-3.6731
X5.6568Y-3.7731
X5.7568Y-3.6731
X5.7568Y-3.7731
X5.8568Y-3.6731
X5.8568Y-3.7731
X5.9568Y-3.6731
X5.9568Y-3.7731
X6.0568Y-3.6731
X6.0568Y-3.7731
X6.1568Y-3.6731
X6.1568Y-3.7731
X6.2568Y-3.6731
X6.2568Y-3.7731
X6.3568Y-3.6731
X6.3568Y-3.7731
X6.4568Y-3.6731
X6.4568Y-3.7731
X6.5568Y-3.6731
X6.5568Y-3.7731
X6.6568Y-3.6731
X6.6568Y-3.7731
X6.7568Y-3.6731
X6.7568Y-3.7731
X6.8568Y-3.6731
X6.8568Y-3.7731
X5.015Y-4.6231
X5.1135Y-4.6231
X5.465Y-4.6231
X5.5635Y-4.6231
T0
M30
